<svg xmlns:xlink="http://www.w3.org/1999/xlink" width="51" height="11" viewBox="0 0 65 14" fill="black" xmlns="http://www.w3.org/2000/svg"><path d="M6.7295 7.9209H2.68457L1.71387 10.7891H0L3.832 0.175781H5.61132L9.44332 10.7891H7.7002L6.7295 7.9209ZM3.10352 6.5967H6.31052L4.72852 1.94143H4.68457L3.10352 6.5967Z" fill="current"></path><path d="M17.7334 6.92089C17.7334 9.32519 16.4463 10.8701 14.5049 10.8701C14.0129 10.896 13.5236 10.7828 13.093 10.5434C12.6624 10.304 12.3079 9.94816 12.0703 9.51659H12.0342V13.3486H10.4453V3.05175H11.9824V4.33886H12.0117C12.2603 3.90928 12.6207 3.55516 13.0546 3.31423C13.4884 3.07329 13.9796 2.95456 14.4756 2.97069C16.4395 2.97069 17.7334 4.52245 17.7334 6.92089ZM16.1006 6.92089C16.1006 5.35351 15.292 4.32421 14.0566 4.32421C12.8428 4.32421 12.0264 5.37597 12.0264 6.92089C12.0264 8.47948 12.8428 9.52441 14.0566 9.52441C15.292 9.5244 16.1006 8.50194 16.1006 6.92089Z" fill="current"></path><path d="M26.2646 6.92089C26.2646 9.32519 24.9775 10.8701 23.0361 10.8701C22.5441 10.896 22.0548 10.7828 21.6242 10.5434C21.1936 10.304 20.8392 9.94816 20.6016 9.51659H20.5654V13.3486H18.9766V3.05175H20.5137V4.33886H20.543C20.7915 3.90928 21.1519 3.55516 21.5858 3.31423C22.0197 3.07329 22.5108 2.95456 23.0068 2.97069C24.9707 2.97069 26.2646 4.52245 26.2646 6.92089ZM24.6318 6.92089C24.6318 5.35351 23.8232 4.32421 22.5879 4.32421C21.374 4.32421 20.5576 5.37597 20.5576 6.92089C20.5576 8.47948 21.374 9.52441 22.5879 9.52441C23.8232 9.5244 24.6318 8.50194 24.6318 6.92089Z" fill="current"></path><path d="M31.9234 7.83203C32.0415 8.88379 33.063 9.57519 34.4605 9.57519C35.7993 9.57519 36.7632 8.88378 36.7632 7.93554C36.7632 7.11132 36.1822 6.61913 34.8062 6.28027L33.4312 5.94922C31.482 5.47852 30.5777 4.56738 30.5777 3.08887C30.5777 1.25782 32.1734 0 34.439 0C36.6822 0 38.2193 1.25781 38.271 3.08887H36.6675C36.5718 2.0293 35.6968 1.38965 34.4165 1.38965C33.1372 1.38965 32.2622 2.03711 32.2622 2.97852C32.2622 3.72852 32.8208 4.16993 34.189 4.50782L35.3579 4.79493C37.5347 5.30958 38.4399 6.18458 38.4399 7.73731C38.4399 9.72266 36.8589 10.9658 34.3433 10.9658C31.9897 10.9658 30.4014 9.75196 30.2988 7.83204L31.9234 7.83203Z" fill="current"></path><path d="M41.8687 1.2207V3.05175H43.3393V4.30956H41.8687V8.5752C41.8687 9.23731 42.1626 9.5459 42.8101 9.5459C42.9844 9.54324 43.1585 9.53118 43.3315 9.50977V10.7598C43.0408 10.8139 42.7454 10.8384 42.4497 10.833C40.8823 10.833 40.272 10.2451 40.272 8.74414V4.30957H39.147V3.05176H40.272V1.2207H41.8687Z" fill="current"></path><path d="M44.2095 6.92089C44.2095 4.48632 45.6431 2.95605 47.8794 2.95605C50.1226 2.95605 51.5493 4.48632 51.5493 6.92089C51.5493 9.3623 50.1304 10.8848 47.8794 10.8848C45.6284 10.8848 44.2095 9.3623 44.2095 6.92089ZM49.9312 6.92089C49.9312 5.25097 49.1665 4.26562 47.8794 4.26562C46.5923 4.26562 45.8276 5.25781 45.8276 6.92089C45.8276 8.59765 46.5923 9.57519 47.8794 9.57519C49.1665 9.57519 49.9312 8.59769 49.9312 6.92089Z" fill="current"></path><path d="M52.8599 3.05178H54.3745V4.36819H54.4116C54.514 3.95698 54.7548 3.59356 55.0936 3.33905C55.4324 3.08454 55.8485 2.95447 56.272 2.97072C56.4553 2.96957 56.6381 2.98956 56.8169 3.03029V4.51564C56.5857 4.44516 56.3446 4.41283 56.103 4.41994C55.8724 4.41052 55.6424 4.45113 55.429 4.53899C55.2155 4.62686 55.0236 4.75988 54.8665 4.92893C54.7093 5.09798 54.5906 5.29905 54.5185 5.51833C54.4463 5.73761 54.4226 5.9699 54.4487 6.19924V10.7891H52.8599V3.05178Z" fill="current"></path><path d="M64.1391 8.51663C63.9646 9.24789 63.5307 9.89098 62.9179 10.3265C62.3051 10.762 61.5551 10.9604 60.8071 10.8848C58.5571 10.8848 57.1597 9.37698 57.1597 6.95706C57.1597 4.5303 58.564 2.95605 60.7417 2.95605C62.8813 2.95605 64.227 4.42675 64.227 6.77344V7.31739H58.7632V7.41309C58.7379 7.69781 58.7735 7.98466 58.8676 8.25458C58.9617 8.52449 59.1122 8.77129 59.309 8.97856C59.5058 9.18584 59.7445 9.34886 60.0092 9.45678C60.2739 9.5647 60.5586 9.61505 60.8442 9.6045C61.2195 9.63973 61.5962 9.55289 61.9181 9.35689C62.2401 9.16088 62.4902 8.86619 62.6313 8.51663H64.1391ZM58.77 6.20706H62.6391C62.6533 5.95107 62.6144 5.69492 62.5249 5.45467C62.4354 5.21441 62.2973 4.99523 62.1192 4.81085C61.941 4.62648 61.7267 4.48089 61.4897 4.3832C61.2526 4.28552 60.998 4.23785 60.7417 4.24319C60.483 4.24159 60.2265 4.29125 59.9871 4.38928C59.7476 4.48731 59.53 4.63179 59.3467 4.81436C59.1634 4.99694 59.0181 5.21401 58.9191 5.45304C58.8201 5.69207 58.7694 5.94834 58.77 6.20706Z" fill="current"></path></svg>