<svg width="24" height="24" viewBox="0 0 24 24" fill="none" xmlns="http://www.w3.org/2000/svg">
<path d="M19 5H5C4.45 5 4 5.45 4 6V16.335C4 16.885 4.45 17.335 5 17.335H10L12 20L14 17.335H19C19.55 17.335 20 16.885 20 16.335V6C20 5.45 19.55 5 19 5Z" fill="#00D48D"/>
<path d="M11.8824 8.21252C11.9291 8.12292 12.0574 8.12292 12.1041 8.21252L12.9935 9.91784C13.0122 9.95375 13.0471 9.97836 13.0873 9.98387L15.0641 10.2557C15.1688 10.2701 15.2095 10.3998 15.1318 10.4714L13.7104 11.7826C13.679 11.8116 13.6645 11.8547 13.6722 11.8968L14.0089 13.7548C14.0273 13.856 13.9223 13.9348 13.8302 13.889L12.0489 13.0028C12.0139 12.9853 11.9726 12.9853 11.9376 13.0028L10.1562 13.889C10.0642 13.9348 9.95923 13.856 9.97757 13.7548L10.3143 11.8968C10.322 11.8547 10.3075 11.8116 10.2761 11.7826L8.85464 10.4714C8.77699 10.3998 8.8177 10.2701 8.92237 10.2557L10.8992 9.98387C10.9394 9.97836 10.9743 9.95375 10.993 9.91784L11.8824 8.21252Z" fill="white"/>
</svg>
