<svg xmlns:xlink="http://www.w3.org/1999/xlink" width="64" height="12" viewBox="0 0 84 16" fill="black" xmlns="http://www.w3.org/2000/svg"><path d="M2.8684 11.5921C1.99443 11.0942 1.30299 10.4139 0.791334 9.54543C0.279674 8.677 0.0224609 7.71176 0.0224609 6.64695C0.0224609 5.58215 0.279674 4.61414 0.791334 3.74847C1.30299 2.88003 1.99719 2.19966 2.8684 1.70183C3.7396 1.20399 4.69378 0.955078 5.73093 0.955078C6.56341 0.955078 7.32952 1.10166 8.02925 1.3976C8.72898 1.69076 9.32361 2.10286 9.81038 2.63111L8.6543 3.78719C7.91309 2.9547 6.93955 2.53984 5.73093 2.53984C5.02014 2.53984 4.35636 2.70855 3.73684 3.04874C3.11731 3.38892 2.62501 3.87292 2.25994 4.50351C1.89486 5.1341 1.71232 5.84765 1.71232 6.64972C1.71232 7.45178 1.89763 8.17916 2.26823 8.80422C2.63884 9.42927 3.13114 9.91051 3.74513 10.2507C4.35912 10.5909 5.02567 10.7596 5.74752 10.7596C6.8953 10.7596 7.82735 10.4 8.54921 9.67819C8.78153 9.45417 8.9779 9.17206 9.13554 8.82635C9.29319 8.48063 9.40106 8.10173 9.4619 7.6841H5.7171V6.2072H11.0135C11.0743 6.55292 11.1047 6.84608 11.1047 7.08947C11.1047 7.7809 10.9969 8.43638 10.7784 9.06143C10.5599 9.68649 10.2225 10.2369 9.76613 10.7126C9.27936 11.2408 8.69579 11.6446 8.01542 11.924C7.33505 12.2033 6.57448 12.3416 5.73369 12.3416C4.69931 12.3416 3.74514 12.0927 2.87116 11.5948L2.8684 11.5921Z" fill="current"></path><path d="M14.3465 11.797C13.727 11.4374 13.2457 10.9423 12.9 10.3118C12.5543 9.68394 12.3828 8.98144 12.3828 8.21257C12.3828 7.4437 12.5543 6.7412 12.9 6.11338C13.2457 5.48556 13.727 4.9905 14.3465 4.62818C14.966 4.26864 15.6657 4.08887 16.4457 4.08887C17.2256 4.08887 17.9115 4.27141 18.531 4.63648C19.1506 5.00156 19.6318 5.49939 19.9775 6.12721C20.3232 6.7578 20.4947 7.45199 20.4947 8.21257C20.4947 8.97315 20.3232 9.68394 19.9775 10.3118C19.6318 10.9396 19.1533 11.4346 18.5393 11.797C17.9253 12.1565 17.2284 12.3363 16.4457 12.3363C15.663 12.3363 14.9632 12.1565 14.3465 11.797ZM17.6488 10.5109C18.0138 10.2979 18.307 9.9937 18.531 9.5982C18.7551 9.2027 18.8657 8.74082 18.8657 8.21257C18.8657 7.68432 18.7551 7.22244 18.531 6.82694C18.307 6.43144 18.0138 6.12721 17.6488 5.91425C17.2837 5.70129 16.8827 5.59342 16.4457 5.59342C16.0087 5.59342 15.6049 5.70129 15.237 5.91425C14.8664 6.12721 14.5705 6.43144 14.3465 6.82694C14.1225 7.22244 14.0118 7.68432 14.0118 8.21257C14.0118 8.74082 14.1225 9.2027 14.3465 9.5982C14.5705 9.9937 14.8664 10.2979 15.237 10.5109C15.6077 10.7239 16.0115 10.8317 16.4457 10.8317C16.8799 10.8317 17.2837 10.7239 17.6488 10.5109Z" fill="current"></path><path d="M23.5838 11.797C22.9643 11.4374 22.483 10.9423 22.1373 10.3118C21.7916 9.68394 21.6201 8.98144 21.6201 8.21257C21.6201 7.4437 21.7916 6.7412 22.1373 6.11338C22.483 5.48556 22.9643 4.9905 23.5838 4.62818C24.2033 4.26864 24.903 4.08887 25.683 4.08887C26.4629 4.08887 27.1488 4.27141 27.7683 4.63648C28.3879 5.00156 28.8691 5.49939 29.2148 6.12721C29.5605 6.7578 29.732 7.45199 29.732 8.21257C29.732 8.97315 29.5605 9.68394 29.2148 10.3118C28.8691 10.9396 28.3906 11.4346 27.7766 11.797C27.1626 12.1565 26.4657 12.3363 25.683 12.3363C24.9003 12.3363 24.2005 12.1565 23.5838 11.797ZM26.8861 10.5109C27.2511 10.2979 27.5443 9.9937 27.7683 9.5982C27.9924 9.2027 28.103 8.74082 28.103 8.21257C28.103 7.68432 27.9924 7.22244 27.7683 6.82694C27.5443 6.43144 27.2511 6.12721 26.8861 5.91425C26.521 5.70129 26.12 5.59342 25.683 5.59342C25.246 5.59342 24.8422 5.70129 24.4743 5.91425C24.1037 6.12721 23.8078 6.43144 23.5838 6.82694C23.3598 7.22244 23.2491 7.68432 23.2491 8.21257C23.2491 8.74082 23.3598 9.2027 23.5838 9.5982C23.8078 9.9937 24.1037 10.2979 24.4743 10.5109C24.845 10.7239 25.2487 10.8317 25.683 10.8317C26.1172 10.8317 26.521 10.7239 26.8861 10.5109Z" fill="current"></path><path d="M32.4176 14.9774C31.7926 14.5459 31.3749 14.026 31.162 13.4175L32.6831 12.7786C32.8463 13.1935 33.1118 13.5281 33.4824 13.7826C33.853 14.037 34.2817 14.1643 34.7685 14.1643C35.4876 14.1643 36.0518 13.943 36.4584 13.5005C36.8649 13.058 37.0668 12.4357 37.0668 11.6364V10.8896H36.9755C36.7211 11.2658 36.3809 11.5589 35.955 11.7719C35.5291 11.9849 35.0423 12.0927 34.4947 12.0927C33.8337 12.0927 33.228 11.9268 32.6748 11.5949C32.1217 11.263 31.6792 10.7928 31.35 10.1844C31.0209 9.57591 30.855 8.87895 30.855 8.09625C30.855 7.31354 31.0209 6.61658 31.35 6.00812C31.6792 5.39966 32.1217 4.92672 32.6748 4.59207C33.228 4.25465 33.8337 4.08594 34.4947 4.08594C35.0312 4.08594 35.518 4.19657 35.9495 4.41229C36.3809 4.63079 36.7239 4.92672 36.9755 5.30286H37.0668V4.32932H38.635V11.6806C38.635 12.5131 38.4718 13.2267 38.1482 13.8185C37.8246 14.4132 37.3683 14.8612 36.7847 15.1655C36.2011 15.4697 35.5291 15.6218 34.7685 15.6218C33.8254 15.6218 33.0399 15.4061 32.4176 14.9746V14.9774ZM35.9246 10.3005C36.2703 10.1014 36.5469 9.81376 36.7543 9.43763C36.9617 9.06425 37.0668 8.6162 37.0668 8.09625C37.0668 7.57629 36.9617 7.11165 36.7543 6.73274C36.5469 6.35384 36.2703 6.0662 35.9246 5.86983C35.5789 5.67347 35.1999 5.57667 34.7823 5.57667C34.3647 5.57667 33.983 5.67347 33.6345 5.86983C33.2861 6.0662 33.0067 6.35107 32.7965 6.73274C32.5891 7.11165 32.484 7.56799 32.484 8.09625C32.484 8.6245 32.5891 9.06702 32.7965 9.44592C33.004 9.82483 33.2833 10.1125 33.6345 10.3088C33.9858 10.5052 34.3675 10.602 34.7823 10.602C35.1972 10.602 35.5789 10.5024 35.9246 10.3033V10.3005Z" fill="current"></path><path d="M40.585 1.19531H42.2278V12.0923H40.585V1.19531Z" fill="current"></path><path d="M48.0248 12.3393C48.8324 12.3393 49.5183 12.1567 50.0797 11.7916C50.644 11.4266 51.0699 11.0145 51.3741 10.5581L50.0051 9.64543C49.5017 10.3922 48.8324 10.7573 48.0248 10.7573C47.1425 10.7573 46.4871 10.3452 46.075 9.54033L51.4488 7.31669L51.2662 6.86034C51.0367 6.23529 50.6274 5.64342 50.0632 5.10963C49.4989 4.57585 48.755 4.30204 47.8257 4.30204C47.1398 4.30204 46.5009 4.47075 45.9229 4.8054C45.3448 5.15665 44.8885 5.62683 44.5538 6.23805C44.2026 6.84651 44.0366 7.54624 44.0366 8.32341C44.0366 9.10058 44.2053 9.73947 44.5538 10.3479C44.9051 10.973 45.3752 11.4598 45.9865 11.811C46.5949 12.1622 47.2808 12.3448 48.0276 12.3448L48.0248 12.3393ZM45.7873 8.19896C45.7707 7.71219 45.8786 7.28626 46.0916 6.93502C46.3045 6.58377 46.5783 6.30996 46.913 6.12742C47.2476 5.94488 47.5685 5.85362 47.8865 5.85362C48.2378 5.85362 48.542 5.93106 48.8158 6.08317C49.0896 6.25188 49.2722 6.44825 49.38 6.70823L45.7873 8.20172V8.19896ZM56.2888 12.0959H57.9953V7.8643H60.0668C60.7057 7.8643 61.3003 7.72602 61.8479 7.43838C62.3817 7.14798 62.8215 6.75248 63.1423 6.25188C63.4631 5.74852 63.6152 5.17048 63.6152 4.5316C63.6152 3.89271 63.4631 3.31467 63.1423 2.81131C62.8215 2.30795 62.3817 1.91245 61.8479 1.62481C61.3003 1.33441 60.7057 1.19889 60.0668 1.19889H56.2916V12.1014L56.2888 12.0959ZM57.9953 6.24911V2.82237H60.0972C60.4789 2.82237 60.7969 2.89982 61.0708 3.06576C61.3446 3.2317 61.5575 3.44743 61.6958 3.70464C61.8341 3.96186 61.9088 4.23843 61.9088 4.52606C61.9088 4.8137 61.8313 5.09027 61.6958 5.34749C61.5575 5.60747 61.3446 5.82043 61.0708 5.98637C60.7969 6.15231 60.4761 6.24635 60.0972 6.24635H57.9953V6.24911ZM65.0866 12.0959H66.7626V1.19336H65.0866V12.0959ZM71.1767 12.3393C71.7105 12.3393 72.1669 12.2314 72.579 12.0046C72.9911 11.775 73.2953 11.5012 73.5221 11.1666H73.5995V12.0959H75.2451V7.25308C75.2451 6.24912 74.9409 5.47194 74.3324 4.90774C73.724 4.36012 72.8555 4.08631 71.7299 4.08631C71.0606 4.08631 70.4521 4.2246 69.9017 4.48181C69.3541 4.74179 68.9116 5.1207 68.5631 5.59364L69.7358 6.4925C69.9488 6.18827 70.2392 5.94488 70.5876 5.77618C70.9389 5.60747 71.304 5.5162 71.6995 5.5162C72.2637 5.5162 72.72 5.66831 73.0685 5.95871C73.4197 6.26294 73.6023 6.65844 73.6023 7.13138V7.52688C73.3893 7.41902 73.0989 7.32775 72.7338 7.23648C72.3688 7.15904 71.9567 7.11479 71.5003 7.11479C70.571 7.11479 69.8105 7.34435 69.2158 7.81452C68.6074 8.28746 68.3031 8.90975 68.3031 9.71734C68.3031 10.2207 68.4248 10.677 68.6682 11.0725C68.9116 11.4846 69.2463 11.7889 69.6888 12.0018C70.1313 12.2314 70.6181 12.3365 71.1823 12.3365L71.1767 12.3393ZM71.4671 10.9536C71.0246 10.9536 70.6761 10.8319 70.4023 10.6024C70.1285 10.3728 69.9902 10.0852 69.9902 9.73393C69.9902 9.33844 70.1424 9.01761 70.4328 8.7604C70.7232 8.51701 71.1933 8.39532 71.8184 8.39532C72.153 8.39532 72.4739 8.44234 72.7919 8.51701C73.0962 8.59446 73.37 8.69955 73.5995 8.83784C73.5995 9.21951 73.5082 9.56799 73.3257 9.88882C73.1432 10.2096 72.8832 10.4669 72.5651 10.666C72.2471 10.8651 71.8792 10.9564 71.4699 10.9564L71.4671 10.9536Z" fill="current"></path><path d="M79.0808 11.6668L75.8394 4.33203H77.6647L79.8856 9.62841H79.9603L82.1065 4.33203H83.9181L79.125 15.3811H77.3743L79.078 11.6668H79.0808Z" fill="current"></path></svg>