<svg xmlns:xlink="http://www.w3.org/1999/xlink" xmlns="http://www.w3.org/2000/svg" width="51" height="32" viewBox="0 0 51 32" fill="none">
<rect x="0.5" y="0.5" width="50" height="31" rx="5.5" fill="white"/>
<path d="M18.532 11.204V20.132H16.948L12.244 13.496V20.132H10.804V11.204H12.388L17.092 17.864V11.204H18.532ZM26.261 11.204V12.452H21.353V14.912H25.637V16.16H21.353V18.884H26.261V20.132H19.913V11.204H26.261ZM39.3916 11.204L36.8356 20.132H35.5396L33.3316 13.472L31.2916 20.132H29.9836L27.0796 11.204H28.5916L30.6316 17.756L32.5516 11.216H34.0996L36.0796 17.756L37.8796 11.204H39.3916Z" fill="#00D48D"/>
<rect x="0.5" y="0.5" width="50" height="31" rx="5.5" stroke="#00D48D"/>
</svg>